<svg id="Capa_1" data-name="Capa 1" xmlns="http://www.w3.org/2000/svg" viewBox="0 0 245.4 31.62"><defs><style>.cls-1{fill:#92c253;}.cls-2{fill:#f2e500;}.cls-3{fill:#d32a24;}</style></defs><rect class="cls-1" y="0.36" width="71.28" height="14.52"/><path d="M9.58,26.56a6.19,6.19,0,0,1-.29,2A3.68,3.68,0,0,1,8.43,30,3.57,3.57,0,0,1,7,30.85a6,6,0,0,1-2,.28H3.2A.53.53,0,0,1,2.9,31a.44.44,0,0,1-.14-.37V22.74a.48.48,0,0,1,.14-.38.51.51,0,0,1,.3-.1h2a5.55,5.55,0,0,1,2,.3,3.58,3.58,0,0,1,1.33.85,3.81,3.81,0,0,1,.82,1.36A5.56,5.56,0,0,1,9.58,26.56Zm-1.24.05a5.23,5.23,0,0,0-.17-1.34,3,3,0,0,0-.56-1.07,2.68,2.68,0,0,0-1-.71,3.79,3.79,0,0,0-1.5-.25H3.94v6.9H5.16a4.27,4.27,0,0,0,1.43-.21,2.34,2.34,0,0,0,1-.65,2.83,2.83,0,0,0,.59-1.1A5.58,5.58,0,0,0,8.34,26.61Z" transform="translate(0 0.36)"/><path d="M12.58,31a.17.17,0,0,1,0,.1.19.19,0,0,1-.1.06.6.6,0,0,1-.18,0l-.28,0-.28,0-.19,0a.16.16,0,0,1-.09-.06.17.17,0,0,1,0-.1V22.44a.17.17,0,0,1,0-.1.14.14,0,0,1,.1-.06l.19,0a1.06,1.06,0,0,1,.27,0,1.14,1.14,0,0,1,.28,0,.6.6,0,0,1,.18,0,.14.14,0,0,1,.1.06.17.17,0,0,1,0,.1Z" transform="translate(0 0.36)"/><path d="M19.66,28.64a2.59,2.59,0,0,1-.23,1.11,2.38,2.38,0,0,1-.64.83,2.94,2.94,0,0,1-1,.51,4.12,4.12,0,0,1-1.19.17,3.51,3.51,0,0,1-.82-.08,4.75,4.75,0,0,1-.68-.18,2.62,2.62,0,0,1-.5-.23.88.88,0,0,1-.28-.2.37.37,0,0,1-.12-.2,1.09,1.09,0,0,1,0-.34c0-.1,0-.19,0-.25a.69.69,0,0,1,0-.17.17.17,0,0,1,.06-.08.16.16,0,0,1,.1,0,.53.53,0,0,1,.27.11c.12.08.27.16.45.26a4.39,4.39,0,0,0,.66.25,3.06,3.06,0,0,0,.9.12,2.24,2.24,0,0,0,.7-.1,1.92,1.92,0,0,0,.55-.29,1.31,1.31,0,0,0,.35-.46,1.61,1.61,0,0,0,.12-.63,1.11,1.11,0,0,0-.17-.64,1.54,1.54,0,0,0-.45-.47,3.58,3.58,0,0,0-.64-.37l-.74-.35a7.24,7.24,0,0,1-.73-.38,3.15,3.15,0,0,1-.64-.5,2.24,2.24,0,0,1-.45-.68,2.2,2.2,0,0,1-.18-.93,2.4,2.4,0,0,1,.2-1,2,2,0,0,1,.57-.73,2.64,2.64,0,0,1,.85-.45,3.69,3.69,0,0,1,1.07-.15,4,4,0,0,1,.6.05,3.28,3.28,0,0,1,.56.14,2.56,2.56,0,0,1,.47.19,1.15,1.15,0,0,1,.27.17l.09.1,0,.1a.52.52,0,0,1,0,.14,1.28,1.28,0,0,1,0,.21c0,.08,0,.16,0,.22a1.57,1.57,0,0,1,0,.16.29.29,0,0,1-.06.1.16.16,0,0,1-.09,0,.46.46,0,0,1-.23-.1l-.4-.21a3.7,3.7,0,0,0-.55-.22,2.28,2.28,0,0,0-.72-.1,1.79,1.79,0,0,0-.64.1,1.4,1.4,0,0,0-.45.26,1.05,1.05,0,0,0-.27.39,1.28,1.28,0,0,0-.09.48,1.2,1.2,0,0,0,.17.64,1.71,1.71,0,0,0,.46.47,3.37,3.37,0,0,0,.65.38l.74.35c.25.11.49.24.74.38a3.1,3.1,0,0,1,.64.49,2.15,2.15,0,0,1,.46.68A2.11,2.11,0,0,1,19.66,28.64Z" transform="translate(0 0.36)"/><path d="M26.79,24.86a3.29,3.29,0,0,1-.21,1.2A2.65,2.65,0,0,1,26,27a2.89,2.89,0,0,1-1,.58,4.29,4.29,0,0,1-1.42.21h-1V31a.17.17,0,0,1,0,.1.2.2,0,0,1-.09.06l-.18,0-.29,0-.28,0a.6.6,0,0,1-.18,0,.19.19,0,0,1-.1-.06.17.17,0,0,1,0-.1V22.77a.45.45,0,0,1,.15-.39.47.47,0,0,1,.32-.12h1.9l.55,0a4.67,4.67,0,0,1,.63.11,2.58,2.58,0,0,1,.73.29,2.25,2.25,0,0,1,1,1.26A2.69,2.69,0,0,1,26.79,24.86ZM25.55,25a1.76,1.76,0,0,0-.2-.9,1.38,1.38,0,0,0-.5-.54,1.61,1.61,0,0,0-.62-.23,4.44,4.44,0,0,0-.62-.05H22.52v3.56h1.07a2.46,2.46,0,0,0,.88-.14,1.54,1.54,0,0,0,.6-.38,1.5,1.5,0,0,0,.36-.58A2.21,2.21,0,0,0,25.55,25Z" transform="translate(0 0.36)"/><path d="M36,26.59a6.8,6.8,0,0,1-.26,1.94A4.08,4.08,0,0,1,35,30a3.2,3.2,0,0,1-1.27.93,4.44,4.44,0,0,1-1.77.33,4.5,4.5,0,0,1-1.73-.3A3.06,3.06,0,0,1,29,30.09a3.54,3.54,0,0,1-.71-1.41,7.12,7.12,0,0,1-.23-1.94,6.62,6.62,0,0,1,.25-1.9,4,4,0,0,1,.76-1.46,3.41,3.41,0,0,1,1.27-.93,5.12,5.12,0,0,1,3.48,0,3.14,3.14,0,0,1,1.21.86,3.79,3.79,0,0,1,.72,1.4A6.93,6.93,0,0,1,36,26.59Zm-1.25.08a6.87,6.87,0,0,0-.13-1.4,3.21,3.21,0,0,0-.45-1.12,2.15,2.15,0,0,0-.83-.75,2.93,2.93,0,0,0-1.29-.26,2.61,2.61,0,0,0-1.28.28,2.52,2.52,0,0,0-.85.77,3.32,3.32,0,0,0-.47,1.12,6.57,6.57,0,0,0-.14,1.35,8,8,0,0,0,.13,1.44,3.29,3.29,0,0,0,.44,1.13,2,2,0,0,0,.83.74,3.16,3.16,0,0,0,2.6,0,2.25,2.25,0,0,0,.84-.78A3.09,3.09,0,0,0,34.64,28,6.7,6.7,0,0,0,34.78,26.67Z" transform="translate(0 0.36)"/><path d="M44.51,30.64a.57.57,0,0,1,0,.24.61.61,0,0,1-.12.15.4.4,0,0,1-.17.09.58.58,0,0,1-.19,0H43.6a1,1,0,0,1-.32,0A.71.71,0,0,1,43,31a1.41,1.41,0,0,1-.25-.28,3.72,3.72,0,0,1-.26-.43L39.8,25.22l-.43-.82c-.14-.28-.27-.56-.4-.83h0c0,.33,0,.66,0,1s0,.68,0,1V31A.16.16,0,0,1,39,31a.15.15,0,0,1-.1.07l-.18,0-.29,0-.28,0a.6.6,0,0,1-.18,0,.16.16,0,0,1-.09-.07.16.16,0,0,1,0-.09V22.77a.45.45,0,0,1,.15-.39.56.56,0,0,1,.34-.12h.58a1.75,1.75,0,0,1,.35,0,.68.68,0,0,1,.24.12.77.77,0,0,1,.22.22,3.22,3.22,0,0,1,.21.35L42,26.87l.37.7.35.67.32.64.33.65h0c0-.37,0-.74,0-1.13s0-.77,0-1.13V22.46a.16.16,0,0,1,0-.09.2.2,0,0,1,.1-.07l.18-.05h.57a.56.56,0,0,1,.18.05.22.22,0,0,1,.09.07.16.16,0,0,1,0,.09Z" transform="translate(0 0.36)"/><path d="M48.08,31a.3.3,0,0,1,0,.1.19.19,0,0,1-.1.06l-.18,0-.29,0-.28,0a.69.69,0,0,1-.18,0,.19.19,0,0,1-.1-.06.17.17,0,0,1,0-.1V22.44a.18.18,0,0,1,0-.1.14.14,0,0,1,.1-.06l.18,0a1.14,1.14,0,0,1,.27,0,1.23,1.23,0,0,1,.29,0l.18,0a.14.14,0,0,1,.1.06.3.3,0,0,1,0,.1Z" transform="translate(0 0.36)"/><path d="M56.25,28.59a2.76,2.76,0,0,1-.11.77,2.29,2.29,0,0,1-.3.63,2.17,2.17,0,0,1-.46.5,2.43,2.43,0,0,1-.61.35,3.44,3.44,0,0,1-.73.22,4.61,4.61,0,0,1-.88.07H50.84a.48.48,0,0,1-.3-.11.44.44,0,0,1-.14-.37V22.74a.42.42,0,0,1,.44-.48h2a4.72,4.72,0,0,1,1.31.15,2.23,2.23,0,0,1,.84.44,1.89,1.89,0,0,1,.52.7,2.59,2.59,0,0,1,.17.95,2.35,2.35,0,0,1-.08.6,2,2,0,0,1-.22.54,1.88,1.88,0,0,1-.37.43,2.2,2.2,0,0,1-.51.32,2.06,2.06,0,0,1,.68.25,2,2,0,0,1,.55.46,2.13,2.13,0,0,1,.37.66A2.41,2.41,0,0,1,56.25,28.59Zm-1.78-4a1.83,1.83,0,0,0-.09-.59,1.07,1.07,0,0,0-.28-.44,1.26,1.26,0,0,0-.5-.28,2.92,2.92,0,0,0-.81-.09H51.57v2.87h1.34a1.87,1.87,0,0,0,.74-.12,1.45,1.45,0,0,0,.47-.32,1.37,1.37,0,0,0,.27-.47A2.1,2.1,0,0,0,54.47,24.62Zm.54,4a1.67,1.67,0,0,0-.13-.69,1.27,1.27,0,0,0-.37-.51,1.53,1.53,0,0,0-.61-.31A3.35,3.35,0,0,0,53,27H51.57v3.13h1.71a2.48,2.48,0,0,0,.71-.1,1.58,1.58,0,0,0,.53-.28,1.51,1.51,0,0,0,.36-.47A1.69,1.69,0,0,0,55,28.65Z" transform="translate(0 0.36)"/><path d="M62.67,30.62a1.52,1.52,0,0,1,0,.23.54.54,0,0,1,0,.15.21.21,0,0,1-.08.1.17.17,0,0,1-.1,0H58.51a.48.48,0,0,1-.3-.11.41.41,0,0,1-.14-.37V22.44a.3.3,0,0,1,0-.1.14.14,0,0,1,.1-.06l.19,0a2,2,0,0,1,.56,0,.6.6,0,0,1,.18,0,.14.14,0,0,1,.1.06.17.17,0,0,1,0,.1v7.67h3.18a.17.17,0,0,1,.1,0,.24.24,0,0,1,.08.09.54.54,0,0,1,0,.15A1.54,1.54,0,0,1,62.67,30.62Z" transform="translate(0 0.36)"/><path d="M68.91,30.64a1.27,1.27,0,0,1,0,.22.33.33,0,0,1,0,.15.24.24,0,0,1-.08.09.16.16,0,0,1-.09,0H64.41a.48.48,0,0,1-.3-.11.44.44,0,0,1-.14-.37V22.74a.42.42,0,0,1,.44-.48h4.21a.19.19,0,0,1,.1,0s0,0,.07.09a.54.54,0,0,1,0,.15,1.4,1.4,0,0,1,0,.23,1.5,1.5,0,0,1,0,.22.54.54,0,0,1,0,.15.27.27,0,0,1-.07.08.19.19,0,0,1-.1,0H65.15V26h3a.17.17,0,0,1,.1,0,.24.24,0,0,1,.08.09.54.54,0,0,1,0,.15,1.4,1.4,0,0,1,0,.23,1.25,1.25,0,0,1,0,.21.39.39,0,0,1,0,.14.15.15,0,0,1-.08.08.17.17,0,0,1-.1,0h-3v3.17h3.52a.16.16,0,0,1,.09,0,.15.15,0,0,1,.08.08.33.33,0,0,1,0,.15A1.52,1.52,0,0,1,68.91,30.64Z" transform="translate(0 0.36)"/><rect class="cls-2" x="87.84" y="0.24" width="71.4" height="14.52"/><path d="M100.44,30.59a.69.69,0,0,1,.06.25.17.17,0,0,1,0,.14.38.38,0,0,1-.18.06h-.68l-.19,0a.2.2,0,0,1-.1-.07l-.06-.1-.76-2.16H94.79l-.72,2.13-.06.11a.2.2,0,0,1-.1.07.56.56,0,0,1-.18.05h-.31a1.52,1.52,0,0,1-.33,0,.34.34,0,0,1-.18-.06.2.2,0,0,1,0-.14,2.07,2.07,0,0,1,.06-.24l3-8.25a.35.35,0,0,1,.07-.12.23.23,0,0,1,.13-.07.67.67,0,0,1,.22,0H97a.68.68,0,0,1,.23,0,.22.22,0,0,1,.14.08.36.36,0,0,1,.08.12Zm-3.82-7.27h0l-1.53,4.42h3.08Z" transform="translate(0 0.36)"/><path d="M107.38,24.74a3.09,3.09,0,0,1-.22,1.2,2.65,2.65,0,0,1-.63.91,2.8,2.8,0,0,1-1,.58,4.23,4.23,0,0,1-1.41.21h-1v3.19A.15.15,0,0,1,103,31a.6.6,0,0,1-.18,0,1.14,1.14,0,0,1-.28,0,1.23,1.23,0,0,1-.29,0l-.18,0s-.08,0-.09-.06a.17.17,0,0,1,0-.1V22.65a.47.47,0,0,1,.14-.39.51.51,0,0,1,.32-.12h1.9l.56,0a4.83,4.83,0,0,1,.62.11,2.58,2.58,0,0,1,.73.29,2.35,2.35,0,0,1,.64.53,2.58,2.58,0,0,1,.4.73A3,3,0,0,1,107.38,24.74Zm-1.24.09a1.87,1.87,0,0,0-.2-.9,1.48,1.48,0,0,0-.51-.54,1.57,1.57,0,0,0-.61-.23,4.44,4.44,0,0,0-.62-.05h-1.09v3.56h1.06a2.52,2.52,0,0,0,.89-.14,1.58,1.58,0,0,0,.59-.38,1.5,1.5,0,0,0,.36-.58A2,2,0,0,0,106.14,24.83Z" transform="translate(0 0.36)"/><path d="M114.72,30.59a.69.69,0,0,1,.06.25.22.22,0,0,1,0,.14.38.38,0,0,1-.18.06h-.68l-.19,0a.2.2,0,0,1-.1-.07l-.06-.1-.76-2.16h-3.69l-.72,2.13-.06.11a.26.26,0,0,1-.1.07A.56.56,0,0,1,108,31h-.32a1.47,1.47,0,0,1-.32,0,.31.31,0,0,1-.18-.06.2.2,0,0,1,0-.14.69.69,0,0,1,.06-.24l3-8.25a.24.24,0,0,1,.07-.12.23.23,0,0,1,.13-.07.67.67,0,0,1,.22,0h.7a.68.68,0,0,1,.23,0,.22.22,0,0,1,.14.08.36.36,0,0,1,.08.12Zm-3.82-7.27h0l-1.53,4.42h3.08Z" transform="translate(0 0.36)"/><path d="M122.12,30.83a.3.3,0,0,1,0,.1A.22.22,0,0,1,122,31l-.19,0h-.62A.74.74,0,0,1,121,31a.27.27,0,0,1-.1-.08.61.61,0,0,1-.07-.14L120,28.68c-.1-.24-.2-.46-.3-.65a2,2,0,0,0-.37-.52,1.58,1.58,0,0,0-.5-.34,1.78,1.78,0,0,0-.69-.12h-.79v3.78a.17.17,0,0,1,0,.1.14.14,0,0,1-.1.06.61.61,0,0,1-.17,0,1.23,1.23,0,0,1-.29,0,1.14,1.14,0,0,1-.28,0,.6.6,0,0,1-.18,0,.14.14,0,0,1-.1-.06.17.17,0,0,1,0-.1V22.62a.44.44,0,0,1,.14-.37.47.47,0,0,1,.3-.11h1.89l.55,0,.41,0a3.28,3.28,0,0,1,.9.29,1.95,1.95,0,0,1,1.07,1.16,2.47,2.47,0,0,1,.13.84,2.53,2.53,0,0,1-.12.8,2,2,0,0,1-.35.62,2.23,2.23,0,0,1-.54.47,3.48,3.48,0,0,1-.7.33,2,2,0,0,1,.39.25,2.27,2.27,0,0,1,.34.35,4.19,4.19,0,0,1,.29.47c.09.18.18.38.27.61l.8,1.95c.06.17.1.28.12.35A.56.56,0,0,1,122.12,30.83Zm-1.78-6.23a1.62,1.62,0,0,0-.23-.88,1.37,1.37,0,0,0-.78-.52l-.39-.07-.57,0h-1v3h1.15a2.78,2.78,0,0,0,.81-.11,1.61,1.61,0,0,0,.56-.32,1.21,1.21,0,0,0,.34-.47A1.68,1.68,0,0,0,120.34,24.6Z" transform="translate(0 0.36)"/><path d="M129.39,22.65a1.48,1.48,0,0,1,0,.22.5.5,0,0,1,0,.16.19.19,0,0,1-.07.08.19.19,0,0,1-.1,0h-2.5v7.69a.17.17,0,0,1,0,.1s0,.05-.09.06l-.18,0a1.23,1.23,0,0,1-.29,0,1.19,1.19,0,0,1-.28,0,.6.6,0,0,1-.18,0,.14.14,0,0,1-.1-.06.17.17,0,0,1,0-.1V23.14H123a.17.17,0,0,1-.1,0,.14.14,0,0,1-.07-.08.5.5,0,0,1,0-.16,1.38,1.38,0,0,1,0-.22,1.4,1.4,0,0,1,0-.23.5.5,0,0,1,0-.16.13.13,0,0,1,.07-.09.17.17,0,0,1,.1,0h6.17a.19.19,0,0,1,.1,0,.17.17,0,0,1,.07.09.5.5,0,0,1,0,.16A1.55,1.55,0,0,1,129.39,22.65Z" transform="translate(0 0.36)"/><path d="M136.2,30.59a.69.69,0,0,1,.06.25.17.17,0,0,1,0,.14A.38.38,0,0,1,136,31h-.68l-.19,0a.2.2,0,0,1-.1-.07l-.06-.1-.76-2.16h-3.69l-.72,2.13-.06.11a.2.2,0,0,1-.1.07.56.56,0,0,1-.18.05h-.31a1.52,1.52,0,0,1-.33,0,.38.38,0,0,1-.18-.06.2.2,0,0,1,0-.14,2.07,2.07,0,0,1,.06-.24l3-8.25a.35.35,0,0,1,.07-.12.23.23,0,0,1,.13-.07.67.67,0,0,1,.22,0h.7a.68.68,0,0,1,.23,0,.22.22,0,0,1,.14.08.36.36,0,0,1,.08.12Zm-3.82-7.27h0l-1.53,4.42h3.08Z" transform="translate(0 0.36)"/><path d="M144.5,26.44a6.19,6.19,0,0,1-.29,2,3.61,3.61,0,0,1-.86,1.42,3.57,3.57,0,0,1-1.39.85,6,6,0,0,1-2,.28h-1.88a.47.47,0,0,1-.3-.11.44.44,0,0,1-.14-.37V22.62a.44.44,0,0,1,.14-.37.47.47,0,0,1,.3-.11h2a5.55,5.55,0,0,1,2,.3,3.58,3.58,0,0,1,1.33.85,3.81,3.81,0,0,1,.82,1.36A5.56,5.56,0,0,1,144.5,26.44Zm-1.24,0a4.82,4.82,0,0,0-.18-1.34,2.79,2.79,0,0,0-.55-1.07,2.68,2.68,0,0,0-1-.71,3.79,3.79,0,0,0-1.5-.25h-1.2V30h1.22a4.27,4.27,0,0,0,1.43-.21,2.34,2.34,0,0,0,1-.65,2.83,2.83,0,0,0,.59-1.1A5.58,5.58,0,0,0,143.26,26.49Z" transform="translate(0 0.36)"/><path d="M153.75,26.47a6.81,6.81,0,0,1-.25,1.94,3.94,3.94,0,0,1-.76,1.47,3.37,3.37,0,0,1-1.26.94,4.64,4.64,0,0,1-1.78.32,4.54,4.54,0,0,1-1.73-.3,3.14,3.14,0,0,1-1.21-.86,3.79,3.79,0,0,1-.71-1.42,7.54,7.54,0,0,1-.23-1.94,6.62,6.62,0,0,1,.25-1.9,4,4,0,0,1,.77-1.46,3.37,3.37,0,0,1,1.26-.93,4.64,4.64,0,0,1,1.78-.32,4.71,4.71,0,0,1,1.71.29,3.3,3.3,0,0,1,1.21.86,3.79,3.79,0,0,1,.72,1.4A7.35,7.35,0,0,1,153.75,26.47Zm-1.25.08a6.87,6.87,0,0,0-.13-1.4,3.41,3.41,0,0,0-.44-1.12,2.18,2.18,0,0,0-.84-.75,2.86,2.86,0,0,0-1.28-.26,2.67,2.67,0,0,0-1.29.28,2.52,2.52,0,0,0-.85.77,3.3,3.3,0,0,0-.46,1.12,6,6,0,0,0-.14,1.35A7.2,7.2,0,0,0,147.2,28a2.94,2.94,0,0,0,.44,1.13,2.12,2.12,0,0,0,.82.75,3,3,0,0,0,1.3.26,2.72,2.72,0,0,0,1.3-.29,2.36,2.36,0,0,0,.85-.78,3.28,3.28,0,0,0,.46-1.13A6.71,6.71,0,0,0,152.5,26.55Z" transform="translate(0 0.36)"/><rect class="cls-3" x="174.12" width="71.28" height="14.52"/><path d="M187.54,30.56a.27.27,0,0,1-.07.13.4.4,0,0,1-.13.07l-.22,0h-.6l-.2,0-.14,0-.1,0s-.05,0-.06-.07l-.05-.09-2.9-8.24a.92.92,0,0,1,0-.25.15.15,0,0,1,0-.14.47.47,0,0,1,.2-.06H184a.39.39,0,0,1,.17,0,.23.23,0,0,1,.1.07.37.37,0,0,1,.05.11l2.55,7.47h0l2.48-7.46a.33.33,0,0,1,0-.12.16.16,0,0,1,.09-.07.5.5,0,0,1,.2,0h.66a.39.39,0,0,1,.17.07.16.16,0,0,1,0,.14,1,1,0,0,1-.06.24Z" transform="translate(0 0.36)"/><path d="M196.86,30.28a1.27,1.27,0,0,1,0,.22.33.33,0,0,1-.05.15.22.22,0,0,1-.07.09.19.19,0,0,1-.1,0h-4.26a.43.43,0,0,1-.3-.11.44.44,0,0,1-.14-.37V22.38a.44.44,0,0,1,.14-.37.43.43,0,0,1,.3-.11h4.21a.19.19,0,0,1,.1,0s.05,0,.07.09a.54.54,0,0,1,0,.15.79.79,0,0,1,0,.23.68.68,0,0,1,0,.21.53.53,0,0,1,0,.16.19.19,0,0,1-.07.08.19.19,0,0,1-.1,0H193.1v2.78h3a.17.17,0,0,1,.1,0,.24.24,0,0,1,.08.09.54.54,0,0,1,0,.15,1.4,1.4,0,0,1,0,.23,1.25,1.25,0,0,1,0,.21.39.39,0,0,1,0,.14.15.15,0,0,1-.08.08.17.17,0,0,1-.1,0h-3v3.17h3.52a.19.19,0,0,1,.1,0,.19.19,0,0,1,.07.08.33.33,0,0,1,.05.15A1.4,1.4,0,0,1,196.86,30.28Z" transform="translate(0 0.36)"/><path d="M205.43,30.28a.61.61,0,0,1,0,.24.44.44,0,0,1-.12.15.4.4,0,0,1-.17.09.57.57,0,0,1-.18,0h-.39a1.11,1.11,0,0,1-.33,0,.71.71,0,0,1-.26-.13,2.27,2.27,0,0,1-.25-.27c-.08-.12-.17-.27-.26-.44l-2.71-5.05c-.14-.26-.28-.53-.42-.82s-.28-.56-.41-.83h0c0,.33,0,.66,0,1s0,.68,0,1v5.35a.16.16,0,0,1,0,.09.15.15,0,0,1-.1.07.6.6,0,0,1-.18,0,1.19,1.19,0,0,1-.29,0,1.14,1.14,0,0,1-.28,0l-.18,0a.16.16,0,0,1-.09-.07.16.16,0,0,1,0-.09V22.41a.45.45,0,0,1,.15-.39.56.56,0,0,1,.34-.12h.58a1.69,1.69,0,0,1,.35,0,.82.82,0,0,1,.25.12.89.89,0,0,1,.21.22,2.15,2.15,0,0,1,.21.35l2.08,3.89.37.7.35.67.33.65c.11.21.21.42.32.64h0c0-.37,0-.74,0-1.13s0-.77,0-1.13V22.1a.16.16,0,0,1,0-.09.26.26,0,0,1,.1-.07l.18-.05h.57a.56.56,0,0,1,.18.05s.08,0,.09.07a.16.16,0,0,1,0,.09Z" transform="translate(0 0.36)"/><path d="M214.66,26.2a6.47,6.47,0,0,1-.29,2,3.73,3.73,0,0,1-.86,1.42,3.57,3.57,0,0,1-1.39.85,6,6,0,0,1-2,.28h-1.88a.43.43,0,0,1-.3-.11.44.44,0,0,1-.14-.37V22.38A.44.44,0,0,1,208,22a.43.43,0,0,1,.3-.11h2a5.59,5.59,0,0,1,2,.3,3.58,3.58,0,0,1,1.33.85,3.65,3.65,0,0,1,.81,1.36A5.3,5.3,0,0,1,214.66,26.2Zm-1.24.05a4.82,4.82,0,0,0-.18-1.34,2.81,2.81,0,0,0-.56-1.07,2.56,2.56,0,0,0-1-.71,3.79,3.79,0,0,0-1.5-.25H209v6.9h1.21a4.29,4.29,0,0,0,1.44-.21,2.41,2.41,0,0,0,1-.65,2.83,2.83,0,0,0,.59-1.1A5.58,5.58,0,0,0,213.42,26.25Z" transform="translate(0 0.36)"/><path d="M217.65,30.59a.16.16,0,0,1,0,.1.14.14,0,0,1-.1.06.6.6,0,0,1-.18,0,2,2,0,0,1-.57,0,.69.69,0,0,1-.18,0,.14.14,0,0,1-.1-.06.16.16,0,0,1,0-.1V22.08a.17.17,0,0,1,0-.1.14.14,0,0,1,.1-.06l.18-.05h.56l.18.05a.14.14,0,0,1,.1.06.16.16,0,0,1,0,.1Z" transform="translate(0 0.36)"/><path d="M226.79,26.2a6.47,6.47,0,0,1-.29,2,3.61,3.61,0,0,1-.86,1.42,3.57,3.57,0,0,1-1.39.85,6,6,0,0,1-2,.28h-1.88a.47.47,0,0,1-.3-.11.44.44,0,0,1-.14-.37V22.38a.44.44,0,0,1,.14-.37.47.47,0,0,1,.3-.11h2a5.55,5.55,0,0,1,2,.3,3.58,3.58,0,0,1,1.33.85,3.81,3.81,0,0,1,.82,1.36A5.56,5.56,0,0,1,226.79,26.2Zm-1.24.05a4.82,4.82,0,0,0-.18-1.34,2.68,2.68,0,0,0-.56-1.07,2.56,2.56,0,0,0-1-.71,3.79,3.79,0,0,0-1.5-.25h-1.2v6.9h1.21a4.29,4.29,0,0,0,1.44-.21,2.34,2.34,0,0,0,1-.65,2.83,2.83,0,0,0,.59-1.1A5.58,5.58,0,0,0,225.55,26.25Z" transform="translate(0 0.36)"/><path d="M236,26.23a6.81,6.81,0,0,1-.25,1.94,4.1,4.1,0,0,1-.76,1.47,3.24,3.24,0,0,1-1.26.93,4.45,4.45,0,0,1-1.78.33,4.5,4.5,0,0,1-1.73-.3,3.14,3.14,0,0,1-1.21-.86,3.79,3.79,0,0,1-.71-1.42,7.54,7.54,0,0,1-.23-1.94,6.62,6.62,0,0,1,.25-1.9,3.9,3.9,0,0,1,.76-1.46,3.41,3.41,0,0,1,1.27-.93,5.12,5.12,0,0,1,3.48,0,3.14,3.14,0,0,1,1.21.86,3.51,3.51,0,0,1,.72,1.4A6.93,6.93,0,0,1,236,26.23Zm-1.25.08a6.87,6.87,0,0,0-.13-1.4,3.21,3.21,0,0,0-.45-1.12,2.08,2.08,0,0,0-.83-.75,2.86,2.86,0,0,0-1.28-.26,2.62,2.62,0,0,0-1.29.28,2.52,2.52,0,0,0-.85.77A3.3,3.3,0,0,0,229.5,25a6,6,0,0,0-.14,1.35,7.2,7.2,0,0,0,.13,1.44,2.94,2.94,0,0,0,.44,1.13,2,2,0,0,0,.82.74,2.81,2.81,0,0,0,1.3.27,2.72,2.72,0,0,0,1.3-.29,2.36,2.36,0,0,0,.85-.78,3.48,3.48,0,0,0,.46-1.13A6.71,6.71,0,0,0,234.79,26.31Z" transform="translate(0 0.36)"/></svg>